Patient4_TMGait_0pt6_02_right_37_EMG.mot
version=1
nRows=13
nColumns=33
inDegrees=no
endheader
time	1LAddLong	2LGlutMax	3LGlutMed	4LIliopsoas	5LSemiMemb	6LBicFemLong	7LRecFem	8LVastMed	9LVastLat	10LGasMed	11LTibAnt	12lTibPost	13LPeroneusLong	14LSol	15LExtDigLong	16LFlexDigLong	17RAddLong	18RGlutMax	19RGlutMed	20RIliopsoas	21RSemiMemb	22RBicFemLong	23RRecFem	24RVastMed	25RVastLat	26RGasMed	27RTibAnt	28RTibPost	29RPeroneusLong	30RSol	31RExtDigLong	32RFlexDigLong
45.4	-0.006409	-0.16373	-0.095825	0.016174	-0.008087	0.21393	-0.18204	0.014191	-0.087128	0.21683	-0.00061	0.009766	0.091553	-0.027313	0.004272	0.001068	0.019226	0.037537	0.33463	-0.18601	-0.19455	-0.096893	-0.095673	-0.041351	-0.41382	-0.073242	-0.016327	0.014801	0.24262	0.53436	-0.002899	-0.009155
45.401	-0.000458	-0.18433	-0.103	0.00351	0.025177	0.2301	-0.14511	-0.002441	-0.014954	0.55664	-0.006866	-0.001526	0.081787	0.004272	-0.002136	0.00885	0.041809	0.087738	0.51682	-0.17761	-0.13534	-0.060883	-0.053406	-0.065002	-0.6604	-0.055084	0.03418	-0.11215	0.30563	0.76263	-0.010681	-0.007172
45.402	0.005341	-0.29709	-0.14938	0.003662	0.087128	0.22858	-0.17258	-0.005646	0.063782	-0.090027	-0.006561	-0.027313	0.10849	-0.10437	-0.01297	0.003052	0.049744	0.094452	0.38956	-0.039673	0.18204	-0.20538	-0.066681	-0.019989	-0.30914	0.048065	0.04776	-0.051117	0.31342	0.77515	0.002136	-0.003204
45.403	0.00824	-0.40771	-0.20706	0.00473	0.078888	0.28473	-0.17914	-0.019684	0.17166	-0.26276	0.006714	-0.019531	0.1001	-0.24017	-0.018158	-0.010529	0.010223	0.12589	0.43976	0.24429	0.345	-0.22583	-0.098114	0.013275	-0.13397	0.07431	0.061951	0.073242	0.21439	0.40222	-0.006561	-0.002747
45.404	-0.00946	-0.34653	-0.15686	-0.009308	0.03006	0.29343	-0.12146	-0.021057	0.24155	-0.097198	-0.002441	-0.018158	0.29098	-0.17441	-0.005035	-0.006866	-0.01297	0.091248	0.52063	0.25742	0.23682	-0.17487	-0.10346	-0.075226	-0.06134	0.025635	0.10757	0.051117	0.046997	-0.009155	0.000458	-0.014343
45.405	-0.028229	-0.2475	-0.13397	-0.002594	-0.037537	0.26489	-0.094452	-0.010376	0.18738	-0.47546	-0.007019	-0.02533	0.38116	-0.0737	0.006256	-0.005493	0.008392	0.066223	0.62317	0.080566	-0.16022	-0.079041	-0.10422	-0.17044	-0.047455	0.011139	0.15213	0.020142	-0.016937	-0.17059	-0.001221	-0.011292
45.406	-0.049133	-0.23346	-0.088196	0.002594	-0.063477	0.15656	-0.092163	0.005035	0.006256	-0.82779	-0.012512	-0.024567	0.2034	-0.1355	-0.003052	-0.026703	0.000916	0.032196	0.43839	0.031281	-0.53329	-0.031586	-0.096283	-0.11353	-0.032196	-0.002441	0.23529	0.028687	-0.059967	-0.077972	-0.001526	-0.012512
45.407	-0.071564	-0.16464	-0.10437	0.014038	-0.064087	0.2771	-0.059814	0.012054	-0.088196	-0.73532	-0.016937	-0.018005	0.073395	0.022125	0.011749	-0.029907	-0.064392	-0.007477	0.35492	0.042572	-0.44739	-0.14114	-0.17944	-0.039368	-0.012665	-0.001526	0.28763	0.02533	0.017548	-0.024414	0.00061	-0.023804
45.408	-0.070953	-0.10544	-0.13657	-0.002441	-0.11444	0.25772	-0.1268	0.018921	-0.031738	-0.64896	-0.014496	-0.018005	0.059814	0.13092	0.001526	-0.023956	-0.026855	-0.090637	0.15717	0.059052	0.27069	-0.16602	-0.12573	-0.10071	-0.037384	-0.000305	0.050201	0.006256	0.041046	0.11292	0.002136	-0.016785
45.409	-0.049133	0.011292	-0.13702	0.009003	-0.16159	0.22003	-0.20554	0.013275	-0.015717	-0.44388	-0.013733	-0.018311	-0.18417	0.18601	-0.010529	-0.013428	-0.021057	-0.013123	0.15533	0.054474	0.36606	-0.085297	-0.088501	0.007172	0.027924	0.00351	-0.51102	-0.00824	0.14297	-0.039978	0.001831	-0.014801
45.41	0.00351	0.061798	-0.11597	-0.00061	-0.041199	0.08194	-0.21301	0.007019	0.075073	-0.18158	-0.015564	-0.031586	-0.065765	0.18448	-0.040741	0.008392	-0.021667	0.012817	0.19653	0.015869	0.11902	-0.069733	-0.17899	0.065155	0.11505	-0.001526	-0.51178	-0.000458	0.41351	-0.27695	0.000763	-0.016785
45.411	0.063019	0.075378	0.031433	-0.007172	0.029602	-0.26184	-0.22171	-0.004425	0.11688	-0.076141	-0.030975	-0.033417	0.052032	0.18997	-0.042877	0.004883	0.014954	-0.11948	0.29022	-0.049438	0.068665	0.023193	-0.12589	0.035553	0.09964	0.001831	-0.47211	-0.009155	0.33585	-0.28854	-0.001068	-0.014038
45.412	0.056458	0.046082	0.12985	-0.009766	-0.012207	-0.63644	-0.1947	-0.002594	0.11917	-0.095367	-0.027466	-0.033569	0.077057	0.15533	-0.018463	0.006866	0.038605	-0.13489	0.23025	-0.15259	0.027466	0.073547	-0.075226	0.071564	0.20203	0.012207	-0.35339	-0.003967	0.29343	-0.36468	-0.003662	-0.014343
